# xmcd
#
# Track frame offsets: 
#        150
#        23550
#        47119
#        67063
#        90966
#        116553
#        131861
#        153097
#        179059
#        200786
#        227082
#        246097
#        266925
#
# Disc length: 3937 seconds
#
# Revision: 0
# Processed by: cddbd v1.5.2PL0 Copyright (c) Steve Scherf et al.
# Submitted via: ExactAudioCopy v1.0b3
#
DISCID=ba0f5f0d
DTITLE=Billy Davis Rhythm Machine - Blue Teardrops
DYEAR=1900
DGENRE=Blues
TTITLE0=Cupid Don't
TTITLE1=Murder In The First Degree
TTITLE2=I Never Touched Your Heart
TTITLE3=What Did I Do?
TTITLE4=Blue Teardrops
TTITLE5=I Wish I Could Say
TTITLE6=You Let Me Down So Easy
TTITLE7=Guitar Pickin' Superstar
TTITLE8=Every Season Brings A Change
TTITLE9=Natural Born Fool
TTITLE10=Red Grand Cherokee
TTITLE11=I'd Come Crawling
TTITLE12=Born In Mississippi
EXTD=
EXTT0=
EXTT1=
EXTT2=
EXTT3=
EXTT4=
EXTT5=
EXTT6=
EXTT7=
EXTT8=
EXTT9=
EXTT10=
EXTT11=
EXTT12=
PLAYORDER=
